<svg width="1206" height="679" viewBox="0 0 1206 679" fill="none" xmlns="http://www.w3.org/2000/svg">
<rect y="96" width="1200" height="390" rx="15" fill="#A5C8EC"/>
<path d="M936.243 410.643C928.641 407.943 923.108 403.254 919.644 396.576C916.648 389.675 916.499 382.424 919.199 374.822C923.986 361.347 932.657 347.89 945.213 334.451C957.891 320.666 973.696 310.132 992.626 302.848C1005.25 297.992 1016.94 293.001 1027.71 287.877C1038.95 282.53 1048.83 275.533 1057.35 266.886C1066.33 258.016 1073.53 245.979 1078.93 230.777C1082.85 219.72 1083.94 208.434 1082.2 196.919C1080.45 185.403 1075.78 174.99 1068.2 165.68C1061.08 156.147 1050.61 148.926 1036.79 144.017C1019.86 138.003 1004.76 136.143 991.491 138.435C978.226 140.727 966.865 146.419 957.41 155.512C948.3 164.728 941.106 176.764 935.828 191.621C933.128 199.223 928.439 204.756 921.761 208.22C915.206 211.339 907.955 211.487 900.008 208.665C892.406 205.965 886.873 201.275 883.409 194.597C880.412 187.696 880.264 180.445 882.964 172.844C891.555 148.658 904.286 129.249 921.156 114.619C938.372 100.111 958.322 91.0491 981.007 87.4337C1004.16 83.5954 1028.52 86.2172 1054.09 95.2991C1076.55 103.276 1094.7 115.171 1108.54 130.982C1122.85 146.57 1132 164.608 1136.01 185.098C1140.48 205.365 1138.73 226.727 1130.75 249.186C1123.88 268.535 1114.82 284.188 1103.57 296.145C1092.32 308.102 1079.31 317.879 1064.55 325.477C1049.91 332.729 1033.72 339.429 1015.97 345.576C1004.41 349.641 994.815 356.933 987.187 367.454C979.682 377.629 974.641 386.344 972.064 393.6C969.364 401.201 964.674 406.734 957.996 410.199C951.441 413.318 944.19 413.466 936.243 410.643ZM902.186 506.524C892.511 503.088 885.273 496.626 880.472 487.138C876.139 477.428 875.691 467.735 879.127 458.061C882.686 448.041 889.148 440.803 898.513 436.347C908.346 431.669 918.1 431.047 927.775 434.484C937.795 438.043 944.971 444.678 949.304 454.388C954.105 463.876 954.727 473.63 951.167 483.65C947.731 493.324 941.096 500.501 931.263 505.179C921.898 509.635 912.206 510.083 902.186 506.524Z" fill="#F9DC85"/>
</svg>
